<svg xmlns="http://www.w3.org/2000/svg" viewBox="0 0 1600 1100" role="img" aria-labelledby="title desc">
  <title id="title">Movement campaign image placeholder</title>
  <desc id="desc">Abstract candidate with supporters in a bright civic movement scene.</desc>
  <defs>
    <linearGradient id="sky" x1="0" x2="1" y1="0" y2="1">
      <stop offset="0" stop-color="#063144"/>
      <stop offset="0.55" stop-color="#0f6d68"/>
      <stop offset="1" stop-color="#f6ead7"/>
    </linearGradient>
    <linearGradient id="beam" x1="0" x2="1">
      <stop offset="0" stop-color="#35d2ad" stop-opacity="0.75"/>
      <stop offset="1" stop-color="#f0ad45" stop-opacity="0.35"/>
    </linearGradient>
    <filter id="blur" x="-20%" y="-20%" width="140%" height="140%">
      <feGaussianBlur stdDeviation="20"/>
    </filter>
  </defs>
  <rect width="1600" height="1100" fill="url(#sky)"/>
  <path d="M0 810C260 695 487 689 710 790c255 115 490 117 890-24v334H0Z" fill="#f6ead7" opacity="0.88"/>
  <path d="M750 0h850v565C1340 451 1176 360 1036 250 929 166 842 85 750 0Z" fill="url(#beam)" opacity="0.65"/>
  <g opacity="0.22" fill="#ffffff">
    <circle cx="1220" cy="205" r="58"/>
    <circle cx="1328" cy="288" r="22"/>
    <circle cx="1135" cy="330" r="18"/>
  </g>
  <g transform="translate(965 170)">
    <ellipse cx="270" cy="810" rx="355" ry="70" fill="#063144" opacity="0.22" filter="url(#blur)"/>
    <path d="M260 342c-126 0-230 96-240 232L0 930h548l-24-356c-10-136-113-232-264-232Z" fill="#073044"/>
    <path d="M126 548c70 60 172 74 281-10 76 90 110 210 118 392H4c12-170 50-300 122-382Z" fill="#008b84"/>
    <circle cx="265" cy="190" r="145" fill="#d8a077"/>
    <path d="M116 179C130 72 212 18 296 25c90 8 143 69 148 151-62-23-119-23-176-7-55 16-102 17-152 10Z" fill="#172536"/>
    <path d="M152 302c50 64 166 78 228-3-15 86-59 134-115 134-57 0-100-47-113-131Z" fill="#c58f67"/>
    <path d="M216 468h96l-31 82h-40l-25-82Z" fill="#fbf8f1"/>
  </g>
  <g transform="translate(145 592)" opacity="0.96">
    <g fill="#08233a">
      <circle cx="86" cy="84" r="48"/>
      <path d="M0 288c12-96 56-150 139-150 82 0 124 54 139 150Z"/>
      <circle cx="310" cy="58" r="42"/>
      <path d="M236 288c10-88 48-136 122-136 72 0 110 48 122 136Z"/>
      <circle cx="532" cy="96" r="50"/>
      <path d="M438 288c14-94 60-148 146-148 86 0 132 54 146 148Z"/>
    </g>
    <g fill="#35d2ad" opacity="0.82">
      <rect x="54" y="330" width="180" height="16" rx="8"/>
      <rect x="290" y="330" width="150" height="16" rx="8"/>
      <rect x="510" y="330" width="190" height="16" rx="8"/>
    </g>
  </g>
</svg>
